#!OML:ASF I:\Actors\actors\Patient Classification 2\Patient 1\Session 1\actor1.ASF
:FULLY-SPECIFIED
:DEGREES
510
root -0.290928 18.8735 4.85732 15.8526 -6.71269 1.43433
lowerback 26.1948 -5.31564 -1.04197
upperback 3.78628 -6.5877 5.06433
thorax -9.49136 -2.98565 8.50593
lowerneck -18.7697 3.32573 1.89754
upperneck 6.4874 5.51711 -13.3018
head 5.49347 1.75385 -3.98202
rclavicle -2.60408e-014 -5.68524e-014
rhumerus -55.1779 -11.2092 -69.5249
rradius 62.8635
rwrist -16.5237
rhand -0.179635 -44.048
rfingers 7.12502
rthumb 25.4183 -72.3733
lclavicle -2.60408e-014 -5.68524e-014
lhumerus 42.1001 -16.1405 23.6084
lradius 52.4915
lwrist 2.55338
lhand 9.03613 -1.89777
lfingers 7.12502
lthumb 34.2116 24.8388
rfemur 0 0 0
rtibia 0
rfoot 0 0
rtoes 0
lfemur -25.2179 5.43614 -17.5872
ltibia 25.3064
lfoot -16.5325 9.60629
ltoes -55.4491
511
root -0.292079 18.8716 4.86595 15.747 -7.74441 1.29013
lowerback 26.3434 -5.57577 -1.37927
upperback 3.74292 -7.07194 4.56221
thorax -9.57613 -3.20453 8.29975
lowerneck -18.787 3.65161 1.96479
upperneck 6.47277 5.98667 -13.7176
head 5.55052 1.95084 -4.07536
rclavicle 4.06515e-014 2.01269e-014
rhumerus -56.2909 -12.2771 -69.3829
rradius 62.4409
rwrist -16.9762
rhand -0.190154 -44.2732
rfingers 7.12502
rthumb 25.4082 -72.6
lclavicle 4.06515e-014 2.01269e-014
lhumerus 41.1357 -15.3867 26.2123
lradius 49.9014
lwrist -0.537728
lhand 7.72271 -2.29297
lfingers 7.12502
lthumb 32.9633 24.715
rfemur 0 0 0
rtibia 0
rfoot 0 0
rtoes 0
lfemur -24.9747 6.21476 -17.6187
ltibia 25.4329
lfoot -16.774 9.77878
ltoes -55.3201
512
root -0.3005 18.8712 4.87661 15.6099 -8.72252 1.19345
lowerback 26.376 -5.84452 -1.83765
upperback 3.79251 -7.61079 4.00895
thorax -9.48285 -3.45736 8.09676
lowerneck -19.0253 4.00059 2.20437
upperneck 6.61337 6.47885 -14.209
head 5.70581 2.14122 -4.2182
rclavicle -2.39536e-014 7.95139e-016
rhumerus -57.2865 -13.2675 -69.3264
rradius 62.0659
rwrist -17.5308
rhand -0.369297 -44.5685
rfingers 7.12502
rthumb 25.2366 -72.9196
lclavicle -2.39536e-014 7.95139e-016
lhumerus 40.228 -14.2437 28.583
lradius 47.4186
lwrist -3.4868
lhand 6.68075 -2.89549
lfingers 7.12502
lthumb 31.9718 24.3161
rfemur 0 0 0
rtibia 0
rfoot 0 0
rtoes 0
lfemur -24.6876 7.04549 -17.6786
ltibia 25.5432
lfoot -16.8776 9.91258
ltoes -55.372
513
root -0.312242 18.8707 4.88421 15.495 -9.70258 1.14886
lowerback 26.4591 -6.0851 -2.48275
upperback 3.77565 -8.16368 3.46777
thorax -9.46283 -3.70478 8.03063
lowerneck -19.0918 4.38761 2.48131
upperneck 6.65784 7.00007 -14.7007
head 5.81078 2.35718 -4.36287
rclavicle 7.35503e-015 -3.65764e-014
rhumerus -58.216 -14.1178 -69.1537
rradius 61.6359
rwrist -18.1015
rhand -0.38614 -44.7537
rfingers 7.12502
rthumb 25.2205 -73.1071
lclavicle 7.35503e-015 -3.65764e-014
lhumerus 39.1721 -12.907 30.911
lradius 45.0669
lwrist -6.04059
lhand 5.32242 -3.57525
lfingers 7.12502
lthumb 30.6775 23.8872
rfemur 0 0 0
rtibia 0
rfoot 0 0
rtoes 0
lfemur -24.4259 7.97759 -17.7983
ltibia 25.6208
lfoot -16.9501 9.95309
ltoes -55.4679
514
root -0.316313 18.868 4.88859 15.3834 -10.8372 1.07043
lowerback 26.5888 -6.26683 -3.13679
upperback 3.72786 -8.64818 2.90492
thorax -9.51272 -3.91428 7.93355
lowerneck -18.9344 4.78789 2.74693
upperneck 6.45818 7.5049 -15.1745
head 5.80367 2.58749 -4.50082
rclavicle 1.26029e-013 3.69739e-014
rhumerus -58.999 -15.0269 -68.7853
rradius 61.096
rwrist -18.59
rhand -0.1837 -44.9253
rfingers 7.12502
rthumb 25.4144 -73.2512
lclavicle 1.26029e-013 3.69739e-014
lhumerus 38.067 -11.3259 33.2256
lradius 42.8588
lwrist -8.38336
lhand 3.77866 -4.24124
lfingers 7.12502
lthumb 29.2044 23.4872
rfemur 0 0 0
rtibia 0
rfoot 0 0
rtoes 0
lfemur -24.1244 8.80204 -17.894
ltibia 25.6589
lfoot -17.1888 10.1703
ltoes -55.4322
515
root -0.322062 18.8646 4.89199 15.2194 -11.9916 0.94682
lowerback 26.7261 -6.42848 -3.75197
upperback 3.70139 -9.10226 2.30814
thorax -9.55819 -4.11092 7.76642
lowerneck -18.7298 5.12142 2.99332
upperneck 6.17114 7.90772 -15.6308
head 5.75381 2.77605 -4.64179
rclavicle 8.26944e-014 -4.29375e-014
rhumerus -59.6953 -16.2421 -68.192
rradius 60.4786
rwrist -18.9346
rhand 0.374517 -44.9274
rfingers 7.12502
rthumb 25.949 -73.1761
lclavicle 8.26944e-014 -4.29375e-014
lhumerus 37.0254 -9.59128 35.2928
lradius 40.8475
lwrist -10.8363
lhand 2.50262 -4.75761
lfingers 7.12502
lthumb 27.9852 23.1761
rfemur 0 0 0
rtibia 0
rfoot 0 0
rtoes 0
lfemur -23.7311 9.53442 -17.8975
ltibia 25.6782
lfoot -17.4945 10.4557
ltoes -55.3568
516
root -0.332928 18.8605 4.89371 15.0099 -13.1115 0.855872
lowerback 26.8252 -6.60711 -4.47584
upperback 3.66169 -9.61763 1.65715
thorax -9.58334 -4.3338 7.61279
lowerneck -18.0767 5.45237 3.4829
upperneck 5.55805 8.22253 -16.2782
head 5.54375 2.9534 -4.89853
rclavicle -8.50798e-014 7.23576e-014
rhumerus -60.4433 -17.6347 -67.4939
rradius 59.9019
rwrist -19.3218
rhand 1.11421 -44.8177
rfingers 7.12502
rthumb 26.6572 -72.9608
lclavicle -8.50798e-014 7.23576e-014
lhumerus 35.9727 -7.79189 36.9041
lradius 38.97
lwrist -13.4055
lhand 1.62198 -5.19323
lfingers 7.12502
lthumb 27.143 22.8749
rfemur 0 0 0
rtibia 0
rfoot 0 0
rtoes 0
lfemur -23.2856 10.2131 -17.8869
ltibia 25.6902
lfoot -17.7786 10.7497
ltoes -55.328
517
root -0.343153 18.855 4.89359 14.7931 -14.2159 0.764097
lowerback 26.8722 -6.815 -5.25301
upperback 3.59326 -10.1913 0.978245
thorax -9.60244 -4.58183 7.46873
lowerneck -17.0423 5.85857 4.28546
upperneck 4.71909 8.57608 -17.2576
head 5.24425 3.16786 -5.31577
rclavicle 8.26944e-014 -5.24792e-014
rhumerus -61.2513 -18.8988 -66.7602
rradius 59.4414
rwrist -19.8185
rhand 1.50778 -44.7601
rfingers 7.12502
rthumb 27.0338 -72.8453
lclavicle 8.26944e-014 -5.24792e-014
lhumerus 34.8933 -5.74046 38.3771
lradius 37.1371
lwrist -16.0172
lhand 0.732626 -5.69058
lfingers 7.12502
lthumb 26.2919 22.5075
rfemur 0 0 0
rtibia 0
rfoot 0 0
rtoes 0
lfemur -22.8175 10.7377 -17.8411
ltibia 25.6935
lfoot -18.1212 11.1354
ltoes -55.2301
518
root -0.353408 18.8511 4.89352 14.5691 -15.2787 0.650794
lowerback 26.8934 -6.99375 -5.93314
upperback 3.57048 -10.6939 0.335574
thorax -9.57663 -4.80346 7.28055
lowerneck -16.7863 6.223 4.71145
upperneck 4.45055 9.00169 -17.8756
head 5.22639 3.3672 -5.53983
rclavicle -2.22639e-014 -2.54444e-014
rhumerus -61.8854 -20.098 -65.879
rradius 58.9779
rwrist -20.2987
rhand 1.46766 -44.6396
rfingers 7.12502
rthumb 26.9954 -72.7307
lclavicle -2.22639e-014 -2.54444e-014
lhumerus 34.063 -3.31871 40.0668
lradius 35.3594
lwrist -18.5327
lhand -0.464309 -6.25503
lfingers 7.12502
lthumb 25.1456 22.1089
rfemur 0 0 0
rtibia 0
rfoot 0 0
rtoes 0
lfemur -22.3316 11.2535 -17.7626
ltibia 25.6957
lfoot -18.4834 11.4955
ltoes -55.0749
519
root -0.363742 18.8481 4.89428 14.354 -16.3182 0.525079
lowerback 26.9462 -7.13306 -6.53697
upperback 3.53841 -11.1237 -0.272837
thorax -9.59611 -4.98887 7.07274
lowerneck -17.1067 6.48096 4.58913
upperneck 4.54447 9.38514 -17.8789
head 5.34808 3.52488 -5.47069
rclavicle 1.35969e-013 -6.20208e-014
rhumerus -62.4085 -21.3014 -64.7982
rradius 58.4917
rwrist -20.782
rhand 1.24537 -44.4549
rfingers 7.12502
rthumb 26.7827 -72.5788
lclavicle 1.35969e-013 -6.20208e-014
lhumerus 33.4135 -0.619179 41.9904
lradius 33.6929
lwrist -21.0563
lhand -1.7183 -6.88696
lfingers 7.12502
lthumb 23.9436 21.6401
rfemur 0 0 0
rtibia 0
rfoot 0 0
rtoes 0
lfemur -21.8507 11.8135 -17.6769
ltibia 25.697
lfoot -18.8101 11.8459
ltoes -55.0068
520
root -0.375957 18.8432 4.89223 14.2067 -17.3173 0.392439
lowerback 27.0026 -7.24442 -7.17561
upperback 3.4295 -11.5309 -0.841419
thorax -9.69432 -5.15313 6.92849
lowerneck -17.259 6.66469 4.44534
upperneck 4.46804 9.64791 -17.9076
head 5.37569 3.63912 -5.42195
rclavicle 6.44062e-014 2.8625e-014
rhumerus -63.0145 -22.2858 -63.6046
rradius 58.4566
rwrist -21.6205
rhand 0.677117 -44.9198
rfingers 7.12502
rthumb 26.2388 -73.1257
lclavicle 6.44062e-014 2.8625e-014
lhumerus 32.825 2.32266 44.0873
lradius 32.1595
lwrist -23.9208
lhand -2.76181 -7.55312
lfingers 7.12502
lthumb 22.9425 21.1018
rfemur 0 0 0
rtibia 0
rfoot 0 0
rtoes 0
lfemur -21.4584 12.3708 -17.5825
ltibia 25.6936
lfoot -19.0776 12.1942
ltoes -55.102
521
root -0.390902 18.8369 4.88693 14.0821 -18.278 0.270843
lowerback 27.0312 -7.31191 -7.87363
upperback 3.3185 -11.8971 -1.38716
thorax -9.76991 -5.29679 6.82258
lowerneck -17.3976 6.81608 4.60456
upperneck 4.27592 9.82156 -18.3026
head 5.39604 3.69925 -5.55288
rclavicle 8.11041e-014 -7.95139e-015
rhumerus -63.7473 -23.5601 -62.319
rradius 58.8893
rwrist -22.3475
rhand -0.283037 -45.5283
rfingers 7.12502
rthumb 25.3192 -73.8677
lclavicle 8.11041e-014 -7.95139e-015
lhumerus 32.455 5.40857 46.1299
lradius 30.7456
lwrist -26.8818
lhand -3.69669 -8.22399
lfingers 7.12502
lthumb 22.0452 20.5395
rfemur 0 0 0
rtibia 0
rfoot 0 0
rtoes 0
lfemur -21.107 12.9195 -17.4864
ltibia 25.6958
lfoot -19.3482 12.4924
ltoes -55.1961
522
root -0.405768 18.8309 4.88239 13.9367 -19.2016 0.103483
lowerback 27.0312 -7.36802 -8.45632
upperback 3.24943 -12.2156 -1.96155
thorax -9.82062 -5.42577 6.60082
lowerneck -17.6499 6.92506 4.67147
upperneck 4.16302 9.95522 -18.573
head 5.44245 3.73571 -5.63145
rclavicle 5.725e-014 -2.22639e-014
rhumerus -64.5091 -24.6902 -60.9169
rradius 59.1388
rwrist -23.2835
rhand -1.2038 -45.063
rfingers 7.12502
rthumb 24.4369 -73.5244
lclavicle 5.725e-014 -2.22639e-014
lhumerus 32.3348 8.50957 48.038
lradius 29.4845
lwrist -29.5732
lhand -4.70802 -8.92702
lfingers 7.12502
lthumb 21.0739 19.9478
rfemur 0 0 0
rtibia 0
rfoot 0 0
rtoes 0
lfemur -20.7025 13.4108 -17.3214
ltibia 25.7003
lfoot -19.6627 12.7662
ltoes -55.1056
523
root -0.419973 18.8259 4.87906 13.8459 -20.0628 -0.082812
lowerback 26.9633 -7.42153 -8.97474
upperback 3.17151 -12.5012 -2.47917
thorax -9.85235 -5.54279 6.38683
lowerneck -17.9396 7.00579 4.50036
upperneck 4.07724 10.094 -18.7405
head 5.48516 3.77216 -5.6358
rclavicle 6.36111e-015 -1.27222e-014
rhumerus -65.3987 -25.725 -59.3318
rradius 59.4099
rwrist -24.2252
rhand -2.01582 -44.1573
rfingers 7.12502
rthumb 23.6582 -72.7216
lclavicle 6.36111e-015 -1.27222e-014
lhumerus 32.2988 11.7281 50.0247
lradius 28.4131
lwrist -31.9789
lhand -5.92154 -9.75906
lfingers 7.12502
lthumb 19.9078 19.2413
rfemur 0 0 0
rtibia 0
rfoot 0 0
rtoes 0
lfemur -20.3579 13.8511 -17.1394
ltibia 25.698
lfoot -19.9187 13.0559
ltoes -54.9675
524
root -0.43317 18.822 4.87607 13.7718 -20.8416 -0.196112
lowerback 26.8865 -7.41819 -9.66421
upperback 3.08836 -12.7422 -2.84313
thorax -9.81681 -5.63552 6.41127
lowerneck -18.196 7.03474 4.34312
upperneck 3.71204 10.141 -19.2155
head 5.44981 3.76082 -5.75434
rclavicle -6.20208e-014 -9.54166e-015
rhumerus -66.1771 -26.4703 -57.5775
rradius 59.9598
rwrist -25.3793
rhand -2.63059 -43.6912
rfingers 7.12502
rthumb 23.0685 -72.3304
lclavicle -6.20208e-014 -9.54166e-015
lhumerus 32.4154 15.1599 52.2952
lradius 27.4149
lwrist -34.2864
lhand -7.35436 -10.7139
lfingers 7.12502
lthumb 18.53 18.4236
rfemur 0 0 0
rtibia 0
rfoot 0 0
rtoes 0
lfemur -20.0815 14.1954 -17.0295
ltibia 25.6903
lfoot -20.1216 13.3762
ltoes -54.9135
